<?xml version="1.0" encoding="UTF-8"?><svg id="Capa_1" xmlns="http://www.w3.org/2000/svg" viewBox="0 0 1080 1080"><defs><style>.cls-1{fill:#9b9fa3;}.cls-2{fill:#284277;}</style></defs><path class="cls-1" d="M784.91,397.51l-56.7-101.16c-2.32-4.15-8.14-4.15-10.46,0l-56.88,101.47c-27.53,49.11,6.88,110.49,61.94,110.49h0c55.21,0,89.71-61.56,62.11-110.8Zm-62.03,87.01h0c-26.6,0-43.23-29.66-29.93-53.39l27.49-49.04c1.12-2,3.93-2,5.06,0l27.4,48.88c13.34,23.8-3.33,53.54-30.01,53.54Z"/><path class="cls-2" d="M870.71,731.25c3.49,2.01,7.11,3.82,10.84,5.41,53.57,29.2,89.91,86.01,89.91,151.31,0,16.51-2.33,32.47-6.67,47.59-20.25,70.59-84.45,122.61-161.1,124.55h-175.28c-285.23-.12-519.89-234.87-519.89-520.11S343.31,19.89,628.65,19.89c82.92,0,161.57,19.83,231.43,54.99,.2,.09,.4,.19,.6,.29,.01,0,.02,.01,.03,.02,2.9,1.59,4.92,4.61,5.1,8.12v242.7c-.27,5.2-4.55,9.34-9.82,9.34-2.52,0-4.81-.94-6.56-2.5-.34-.36-.67-.72-1.03-1.08,.01-.01,0-.02-.03-.03-55.12-58.14-132.82-94.73-218.4-95.11v-.02c-.24,0-.46,.01-.69,.01-.2,0-.42-.01-.62-.01h-.07v.02c-165.82,.74-302.03,137.4-302.03,303.38s136.12,302.54,301.87,303.38h.16v.02h.07v-293.56c0-5.43,4.4-9.84,9.83-9.84h219.81c5.43,0,9.84,4.41,9.84,9.84,0,3.4-1.72,6.39-4.34,8.17-26.84,18.47-44.43,49.4-44.43,84.43s18.48,67.51,46.45,85.78"/></svg>