<?xml version="1.0" encoding="UTF-8"?><svg id="Capa_1" xmlns="http://www.w3.org/2000/svg" viewBox="0 0 819.91 280.02"><defs><style>.cls-1{fill:#fff;}.cls-2{fill:none;}</style></defs><path class="cls-1" d="M177.45,102.21l-14.63-26.11c-.6-1.07-2.1-1.07-2.7,0l-14.68,26.19c-7.1,12.67,1.78,28.51,15.98,28.51h0c14.25,0,23.15-15.89,16.03-28.59ZM161.44,124.66h0c-6.87,0-11.16-7.65-7.72-13.78l7.09-12.65c.29-.52,1.01-.52,1.3,0l7.07,12.61c3.44,6.14-.86,13.82-7.75,13.82Z"/><path class="cls-1" d="M199.59,188.33c.9.52,1.83.99,2.8,1.4,13.82,7.53,23.2,22.19,23.2,39.05,0,4.26-.6,8.38-1.72,12.28-5.22,18.22-21.79,31.64-41.57,32.14h-45.23c-73.61-.03-134.16-60.61-134.16-134.22S63.49,4.76,137.12,4.76c21.4,0,41.69,5.12,59.72,14.19.05.02.1.05.15.08,0,0,0,0,0,0,.75.41,1.27,1.19,1.31,2.1v62.63c-.07,1.34-1.18,2.41-2.53,2.41-.65,0-1.24-.24-1.69-.64-.09-.09-.17-.19-.27-.28,0,0,0,0,0,0-14.22-15-34.27-24.44-56.36-24.54h0c-.06,0-.12,0-.18,0-.05,0-.11,0-.16,0h-.02c-42.79.2-77.94,35.46-77.94,78.29s35.13,78.07,77.9,78.29h.04s.02,0,.02,0v-75.75c0-1.4,1.13-2.54,2.54-2.54h56.72c1.4,0,2.54,1.14,2.54,2.54,0,.88-.44,1.65-1.12,2.11-6.93,4.77-11.46,12.75-11.46,21.79s4.77,17.42,11.99,22.14"/><rect class="cls-2" x="274.96" y="143.07" width="544.95" height="141.69"/><path class="cls-1" d="M331.73,171.97c-8.54,0-16.04,2.01-22.5,6.03-6.46,4.02-11.45,9.64-14.97,16.84-3.53,7.2-5.29,15.62-5.29,25.26s1.81,18.15,5.44,25.25c3.62,7.1,8.69,12.59,15.2,16.46,6.51,3.87,14.03,5.81,22.57,5.81,4.37,0,8.74-.57,13.11-1.71,4.37-1.14,8.39-3.08,12.07-5.81,3.67-2.73,6.63-6.5,8.87-11.32,2.23-4.82,3.35-10.85,3.35-18.1v-11.03l3.43,3.43h-44.55v-6.56h47.98v56.32h-5.36l-1.19-23.84,1.19,2.53c-1.49,4.17-4.05,8-7.67,11.47-3.63,3.48-8.04,6.26-13.26,8.34-5.21,2.09-11.1,3.13-17.66,3.13-10.03,0-18.87-2.24-26.52-6.71-7.65-4.47-13.61-10.78-17.88-18.92-4.27-8.14-6.41-17.68-6.41-28.61s2.11-20.39,6.33-28.68c4.22-8.29,10.11-14.77,17.66-19.44,7.55-4.67,16.24-7,26.08-7,7.15,0,13.68,1.27,19.59,3.8,5.91,2.53,10.88,6.06,14.9,10.58,4.02,4.52,6.78,9.81,8.27,15.87h-7.9c-2.48-7.65-6.83-13.46-13.04-17.43-6.21-3.97-13.48-5.96-21.83-5.96Z"/><path class="cls-1" d="M463.57,272.69h-7.15v-105.79h39.04c10.03,0,18,2.68,23.91,8.05,5.91,5.36,8.87,12.57,8.87,21.61,0,7.75-2.04,14.23-6.11,19.44-4.07,5.21-9.64,8.57-16.69,10.06l23.69,46.64h-8.05l-23.09-45.74h-34.42v45.74ZM463.57,173.46v46.94h32.18c7.95,0,14.13-2.11,18.55-6.33,4.42-4.22,6.63-9.96,6.63-17.21s-2.31-13.34-6.93-17.36c-4.62-4.02-10.8-6.04-18.55-6.04h-31.89Z"/><path class="cls-1" d="M670.5,272.69h-62.28v-105.79h62.13v6.56h-61.69l6.71-5.66v48.57h50.06v6.56h-50.06v49.02l-6.71-5.81h61.84v6.56Z"/><path class="cls-1" d="M744.67,193.57c0-5.76,1.42-10.78,4.25-15.05,2.83-4.27,6.83-7.57,12-9.91,5.16-2.33,11.22-3.5,18.18-3.5,6.06,0,11.4,1.07,16.02,3.2,4.62,2.14,8.32,5.24,11.1,9.31,2.78,4.07,4.52,8.94,5.21,14.6h-7.45c-.7-6.56-3.2-11.62-7.53-15.2-4.32-3.58-10.11-5.36-17.36-5.36-8.15,0-14.73,1.99-19.74,5.96-5.02,3.97-7.52,9.29-7.52,15.94,0,5.07,1.51,9.26,4.54,12.59,3.03,3.33,7.57,5.79,13.63,7.38l18.77,4.77c7.95,1.99,14.01,5.31,18.18,9.98,4.17,4.67,6.26,10.38,6.26,17.14,0,5.86-1.44,10.98-4.32,15.35-2.88,4.37-6.93,7.75-12.14,10.13s-11.35,3.58-18.4,3.58c-6.55,0-12.37-1.09-17.43-3.28-5.07-2.18-9.09-5.29-12.07-9.31-2.98-4.02-4.77-8.77-5.36-14.23h7.6c.3,6.06,2.95,10.93,7.97,14.6,5.01,3.68,11.45,5.51,19.29,5.51,8.44,0,15.17-2.01,20.19-6.03,5.02-4.02,7.53-9.41,7.53-16.17,0-5.26-1.54-9.61-4.62-13.04-3.08-3.43-7.75-5.93-14.01-7.52l-18.33-4.62c-7.95-1.99-14.01-5.24-18.18-9.76-4.17-4.52-6.26-10.21-6.26-17.06Z"/><path class="cls-1" d="M326.51,115.52c-10.48,0-19.55-2.28-27.24-6.83-7.69-4.55-13.66-10.96-17.91-19.24-4.26-8.27-6.39-18.04-6.39-29.29s2.18-20.9,6.54-29.22c4.35-8.32,10.5-14.78,18.43-19.38,7.93-4.6,17.08-6.9,27.46-6.9,8.52,0,16.15,1.57,22.91,4.7,6.75,3.13,12.33,7.51,16.74,13.14,4.4,5.63,7.2,12.31,8.37,20.04h-19.82c-1.86-6.26-5.31-11.13-10.35-14.61-5.04-3.47-11.18-5.21-18.43-5.21-6.46,0-12.11,1.52-16.96,4.55-4.85,3.04-8.59,7.34-11.23,12.92-2.64,5.58-3.96,12.24-3.96,19.97s1.32,13.98,3.96,19.6c2.64,5.63,6.39,9.99,11.23,13.07,4.85,3.08,10.5,4.63,16.96,4.63,7.34,0,13.63-1.76,18.87-5.29,5.24-3.52,8.74-8.27,10.5-14.24h19.53c-1.37,7.44-4.33,14-8.88,19.68-4.55,5.68-10.28,10.08-17.18,13.22-6.9,3.13-14.61,4.7-23.13,4.7Z"/><path class="cls-1" d="M406.39,115.67c-7.63,0-13.68-2.08-18.13-6.24-4.46-4.16-6.68-9.62-6.68-16.37s2.32-11.97,6.97-15.93c4.65-3.96,11.28-6.29,19.9-6.97l21.73-1.76v-1.62c0-3.33-.61-6-1.83-8-1.23-2-2.96-3.47-5.21-4.41-2.25-.93-4.9-1.39-7.93-1.39-5.29,0-9.35,1.05-12.19,3.16-2.84,2.11-4.26,5.07-4.26,8.88h-15.27c0-5.29,1.34-9.86,4.04-13.73,2.69-3.87,6.51-6.88,11.45-9.03,4.94-2.15,10.65-3.23,17.11-3.23s12.19,1.15,16.89,3.45c4.7,2.3,8.32,5.73,10.87,10.28,2.54,4.55,3.82,10.21,3.82,16.96v44.05h-15.71l-1.32-10.72c-1.57,3.72-4.58,6.75-9.03,9.1-4.46,2.35-9.52,3.52-15.2,3.52ZM412.11,102.16c5.58,0,10.01-1.56,13.29-4.7,3.28-3.13,4.92-7.49,4.92-13.07v-3.82l-15.12,1.17c-5.58.49-9.54,1.64-11.89,3.45-2.35,1.81-3.52,4.19-3.52,7.12,0,3.23,1.08,5.68,3.23,7.34,2.15,1.67,5.19,2.5,9.1,2.5ZM437.96,10.82l-14.39,21.73h-13.21l11.01-21.73h16.59Z"/><path class="cls-1" d="M479.51,113.76h-17.91V41.22h16.59l1.47,9.4c2.25-3.62,5.46-6.46,9.62-8.52,4.16-2.06,8.69-3.08,13.58-3.08,9.1,0,15.98,2.69,20.63,8.08,4.65,5.38,6.97,12.73,6.97,22.03v44.64h-17.91v-40.38c0-6.07-1.37-10.59-4.11-13.58-2.74-2.99-6.46-4.48-11.16-4.48-5.58,0-9.94,1.76-13.07,5.29-3.13,3.52-4.7,8.22-4.7,14.1v39.06Z"/><path class="cls-1" d="M574.22,115.67c-7.05,0-13.09-1.59-18.13-4.77-5.04-3.18-8.96-7.61-11.75-13.29-2.79-5.68-4.18-12.28-4.18-19.82s1.39-14.22,4.18-20.04c2.79-5.82,6.83-10.4,12.12-13.73,5.29-3.33,11.55-4.99,18.79-4.99,5.09,0,9.74,1,13.95,3.01,4.21,2.01,7.44,4.82,9.69,8.44V4.51h17.77v109.25h-16.45l-1.17-11.31c-2.15,4.11-5.46,7.34-9.91,9.69-4.46,2.35-9.42,3.52-14.9,3.52ZM578.18,99.22c4.21,0,7.83-.9,10.87-2.72,3.03-1.81,5.41-4.41,7.12-7.78,1.71-3.38,2.57-7.22,2.57-11.53s-.86-8.25-2.57-11.53c-1.71-3.28-4.09-5.87-7.12-7.78-3.04-1.91-6.66-2.86-10.87-2.86s-7.69.95-10.72,2.86c-3.04,1.91-5.36,4.53-6.98,7.86-1.62,3.33-2.42,7.15-2.42,11.45s.81,8.13,2.42,11.45c1.62,3.33,3.94,5.92,6.98,7.78,3.03,1.86,6.61,2.79,10.72,2.79Z"/><path class="cls-1" d="M640.44,26.68c-3.04,0-5.61-1.05-7.71-3.16-2.11-2.1-3.16-4.67-3.16-7.71s1.05-5.58,3.16-7.64c2.1-2.06,4.67-3.08,7.71-3.08s5.6,1.03,7.71,3.08c2.1,2.06,3.16,4.6,3.16,7.64s-1.05,5.6-3.16,7.71c-2.11,2.11-4.68,3.16-7.71,3.16ZM631.63,113.76V41.22h17.91v72.54h-17.91Z"/><path class="cls-1" d="M694.18,115.67c-7.05,0-13.09-1.59-18.13-4.77-5.04-3.18-8.96-7.61-11.75-13.29-2.79-5.68-4.19-12.28-4.19-19.82s1.4-14.22,4.19-20.04c2.79-5.82,6.83-10.4,12.11-13.73,5.29-3.33,11.55-4.99,18.8-4.99,5.09,0,9.74,1,13.95,3.01,4.21,2.01,7.44,4.82,9.69,8.44V4.51h17.77v109.25h-16.45l-1.17-11.31c-2.15,4.11-5.46,7.34-9.91,9.69-4.46,2.35-9.42,3.52-14.9,3.52ZM698.15,99.22c4.21,0,7.83-.9,10.87-2.72,3.03-1.81,5.41-4.41,7.12-7.78,1.71-3.38,2.57-7.22,2.57-11.53s-.86-8.25-2.57-11.53c-1.71-3.28-4.09-5.87-7.12-7.78-3.04-1.91-6.66-2.86-10.87-2.86s-7.69.95-10.72,2.86c-3.04,1.91-5.36,4.53-6.97,7.86-1.62,3.33-2.42,7.15-2.42,11.45s.81,8.13,2.42,11.45c1.62,3.33,3.94,5.92,6.97,7.78,3.03,1.86,6.61,2.79,10.72,2.79Z"/><path class="cls-1" d="M773.18,115.67c-7.64,0-13.68-2.08-18.13-6.24-4.46-4.16-6.68-9.62-6.68-16.37s2.32-11.97,6.97-15.93c4.65-3.96,11.28-6.29,19.9-6.97l21.73-1.76v-1.62c0-3.33-.61-6-1.83-8-1.23-2-2.96-3.47-5.21-4.41-2.25-.93-4.9-1.39-7.93-1.39-5.29,0-9.35,1.05-12.19,3.16-2.84,2.11-4.26,5.07-4.26,8.88h-15.27c0-5.29,1.34-9.86,4.04-13.73,2.69-3.87,6.51-6.88,11.45-9.03,4.94-2.15,10.65-3.23,17.11-3.23s12.19,1.15,16.89,3.45c4.7,2.3,8.32,5.73,10.87,10.28,2.54,4.55,3.82,10.21,3.82,16.96v44.05h-15.71l-1.32-10.72c-1.57,3.72-4.58,6.75-9.03,9.1-4.46,2.35-9.52,3.52-15.2,3.52ZM778.91,102.16c5.58,0,10.01-1.56,13.29-4.7,3.28-3.13,4.92-7.49,4.92-13.07v-3.82l-15.12,1.17c-5.58.49-9.54,1.64-11.89,3.45-2.35,1.81-3.52,4.19-3.52,7.12,0,3.23,1.08,5.68,3.23,7.34,2.15,1.67,5.19,2.5,9.1,2.5Z"/></svg>